<?xml version="1.0" encoding="UTF-8" ?>
<!DOCTYPE svg PUBLIC "-//W3C//DTD SVG 1.1//EN" "http://www.w3.org/Graphics/SVG/1.1/DTD/svg11.dtd">
<svg width="512pt" height="512pt" viewBox="0 0 512 512" version="1.1" xmlns="http://www.w3.org/2000/svg">
<path fill="#fefefe" d=" M 0.00 0.00 L 40.89 0.00 C 28.97 2.88 17.41 8.99 10.20 19.17 C 4.69 25.33 2.10 33.30 0.00 41.13 L 0.00 0.00 Z" />
<path fill="#f47153" d=" M 40.89 0.00 L 180.40 0.00 C 167.02 13.44 154.28 27.48 140.93 40.95 C 133.27 49.60 124.90 57.58 117.01 66.01 C 110.31 73.63 102.88 80.55 96.00 88.00 C 88.98 95.96 81.22 103.22 74.01 110.99 C 66.07 120.02 57.14 128.11 49.19 137.12 C 42.00 144.94 34.19 152.17 27.17 160.15 C 20.00 167.97 12.16 175.16 5.18 183.18 C 11.73 190.17 18.62 196.83 25.15 203.84 C 32.63 212.36 41.06 220.00 48.57 228.50 C 55.75 236.32 63.54 243.56 70.58 251.52 C 76.63 258.08 83.07 264.27 89.18 270.78 C 98.11 280.84 108.02 289.97 116.93 300.05 C 129.41 312.57 141.24 325.71 153.72 338.23 C 163.30 348.98 173.86 358.82 183.42 369.59 C 194.91 381.01 205.71 393.08 217.10 404.59 C 208.43 414.27 202.11 426.73 202.38 439.97 C 201.78 452.52 206.15 465.13 214.22 474.73 C 224.17 487.06 240.13 494.50 256.01 493.57 C 268.20 493.28 280.11 488.27 289.19 480.22 C 294.89 486.07 300.58 491.93 306.31 497.76 C 310.92 502.41 314.99 507.58 319.84 512.00 L 42.15 512.00 C 39.59 511.26 37.04 510.49 34.48 509.76 C 23.31 506.16 14.04 498.16 7.36 488.68 C 3.65 483.47 2.01 477.21 0.00 471.24 L 0.00 41.13 C 2.10 33.30 4.69 25.33 10.20 19.17 C 17.41 8.99 28.97 2.88 40.89 0.00 Z" />
<path fill="#4fa1a3" d=" M 180.40 0.00 L 469.81 0.00 C 474.60 1.40 479.50 2.65 483.96 4.95 C 492.67 9.47 500.13 16.36 505.46 24.58 C 508.92 29.39 510.10 35.28 512.00 40.77 L 512.00 470.83 C 509.04 484.30 501.39 497.13 489.36 504.31 C 483.89 508.07 477.49 509.98 471.24 512.00 L 319.84 512.00 C 314.99 507.58 310.92 502.41 306.31 497.76 C 300.58 491.93 294.89 486.07 289.19 480.22 C 300.76 470.01 307.52 454.44 306.60 439.00 C 306.17 427.07 301.38 415.34 293.33 406.53 C 285.55 397.55 274.51 391.64 262.84 389.64 C 256.99 389.22 251.07 389.19 245.22 389.65 C 234.73 391.94 224.74 396.99 217.10 404.59 C 205.71 393.08 194.91 381.01 183.42 369.59 C 173.86 358.82 163.30 348.98 153.72 338.23 C 141.24 325.71 129.41 312.57 116.93 300.05 C 108.02 289.97 98.11 280.84 89.18 270.78 C 83.07 264.27 76.63 258.08 70.58 251.52 C 63.54 243.56 55.75 236.32 48.57 228.50 C 41.06 220.00 32.63 212.36 25.15 203.84 C 18.62 196.83 11.73 190.17 5.18 183.18 C 12.16 175.16 20.00 167.97 27.17 160.15 C 34.19 152.17 42.00 144.94 49.19 137.12 C 57.14 128.11 66.07 120.02 74.01 110.99 C 81.22 103.22 88.98 95.96 96.00 88.00 C 102.88 80.55 110.31 73.63 117.01 66.01 C 124.90 57.58 133.27 49.60 140.93 40.95 C 154.28 27.48 167.02 13.44 180.40 0.00 Z" />
<path fill="#fefefe" d=" M 469.81 0.00 L 512.00 0.00 L 512.00 40.77 C 510.10 35.28 508.92 29.39 505.46 24.58 C 500.13 16.36 492.67 9.47 483.96 4.95 C 479.50 2.65 474.60 1.40 469.81 0.00 Z" />
<path fill="#fefefe" d=" M 307.88 48.78 C 310.86 36.95 313.73 25.09 316.84 13.29 C 343.82 19.96 370.77 26.80 397.67 33.78 C 397.46 38.69 395.72 43.34 394.64 48.10 C 386.69 80.52 378.08 112.76 370.12 145.17 C 364.34 167.21 358.80 189.32 353.31 211.44 C 347.72 231.87 342.88 252.51 337.66 273.04 C 330.51 299.50 324.38 326.23 317.22 352.68 C 306.31 350.63 295.66 347.38 284.84 344.87 C 268.89 340.28 252.59 336.96 236.64 332.35 L 236.21 331.65 C 239.42 316.11 243.75 300.80 247.71 285.44 C 261.66 229.52 276.23 173.77 290.13 117.84 C 296.47 94.93 301.53 71.69 307.88 48.78 Z" />
<path fill="#fefefe" d=" M 217.10 404.59 C 224.74 396.99 234.73 391.94 245.22 389.65 C 251.07 389.19 256.99 389.22 262.84 389.64 C 274.51 391.64 285.55 397.55 293.33 406.53 C 301.38 415.34 306.17 427.07 306.60 439.00 C 307.52 454.44 300.76 470.01 289.19 480.22 C 280.11 488.27 268.20 493.28 256.01 493.57 C 240.13 494.50 224.17 487.06 214.22 474.73 C 206.15 465.13 201.78 452.52 202.38 439.97 C 202.11 426.73 208.43 414.27 217.10 404.59 Z" />
<path fill="#fefefe" d=" M 0.00 471.24 C 2.01 477.21 3.65 483.47 7.36 488.68 C 14.04 498.16 23.31 506.16 34.48 509.76 C 37.04 510.49 39.59 511.26 42.15 512.00 L 0.00 512.00 L 0.00 471.24 Z" />
<path fill="#fefefe" d=" M 489.36 504.31 C 501.39 497.13 509.04 484.30 512.00 470.83 L 512.00 512.00 L 471.24 512.00 C 477.49 509.98 483.89 508.07 489.36 504.31 Z" />
</svg>
